# xmcd CD database file
#
# Track frame offsets:
#	150
#	9609
#	23250
#	44565
#	59259
#	78530
#	92202
#	106146
#	127985
#	140188
#	157184
#	172616
#	185348
#	204266
#	215364
#	227349
#	240757
#	256228
#	275467
#	294962
#
# Disc length: 4154 seconds
#
# Revision: 0
# Processed by: cddbd v1.5.2PL0 Copyright (c) Steve Scherf et al.
# Submitted via: CDex 1.70beta2
#
DISCID=01103814
DTITLE=Resetarits - Kainrath - Stringfizz - I got Rhythm, wosbrauchimea
DYEAR=1900
DGENRE=Jazz
TTITLE0=Ouverture
TTITLE1=They all laught
TTITLE2=Mia zwa - the man I love
TTITLE3=I hob Rhythmus - I got Rhythm
TTITLE4=Embraceable
TTITLE5=Wahnsinniger Rhythmus - fascinating Rhythm
TTITLE6=Summa is - Summertime
TTITLE7=Bess du bist ob jetzt - Bess you is my Woman now
TTITLE8=I waas ned, ob's wirklich so woa - It ain't necessarily so
TTITLE9=Kumm hoit mi Porgy - I loves you Porgy
TTITLE10=Stiagn bis ins Himmelreich - I'll build a stairway to Paradise
TTITLE11=Nua ned fia mi - but not for me
TTITLE12=Die, die aufpasst auf mi - Someone to watch over me
TTITLE13=Vom Strauss - By Strauss
TTITLE14=Lorelei - Loreley
TTITLE15=A Newö heit - A foggy Day
TTITLE16=Nice Work if you can get it
TTITLE17=Mia zwa mia bleim beinand - Love is here to stay
TTITLE18=Gemmas doch afoch auf - Let's call the whole Thing off
TTITLE19=Des nimmt ma kana weg - They can't take that Thing away from me
EXTD=
EXTT0=
EXTT1=
EXTT2=
EXTT3=
EXTT4=
EXTT5=
EXTT6=
EXTT7=
EXTT8=
EXTT9=
EXTT10=
EXTT11=
EXTT12=
EXTT13=
EXTT14=
EXTT15=
EXTT16=
EXTT17=
EXTT18=
EXTT19=
PLAYORDER=
